# xmcd
#
# Track frame offsets: 
#        183
#        13028
#        22998
#        32763
#        45390
#        57235
#        69020
#        82543
#        92270
#        103205
#        113455
#        124073
#        133948
#        146315
#        157798
#        167000
#        177218
#        187348
#        199738
#        215155
#        226935
#        240585
#        251643
#        264423
#
# Disc length: 3710 seconds
#
# Revision: 2
# Processed by: cddbd v1.5.2PL0 Copyright (c) Steve Scherf et al.
# Submitted via: ExactAudioCopy v1.0b3
#
DISCID=330e7c18
DTITLE=Bobby Bare - 2 gether on 1 - Detroit City - 500 Miles Away From
DTITLE=Home - RCA 74321 13980 2
DYEAR=1993
DGENRE=Country
TTITLE0=Detroit City (1963)
TTITLE1=Is it wrong (for loving you) (1963)
TTITLE2=Lorina (1961)
TTITLE3=Shame on me (1962)
TTITLE4=I'd fight the world (1963)
TTITLE5=Dear wastebasket (1963)
TTITLE6=The All-American boy (1959)
TTITLE7=I don't believe I'll fall in love today (1962)
TTITLE8=Brooklyn Bridge (1961)
TTITLE9=She called me baby (1961)
TTITLE10=The gods were angry with me (1963)
TTITLE11=Book of love (1961)
TTITLE12=500 miles away from home (1963)
TTITLE13=Homestead on the farm (1963)
TTITLE14=Let me tell you about Mary (1971)
TTITLE15=Abilene (1965)
TTITLE16=Gotta travel on (1968)
TTITLE17=Lynchin' party (1960)
TTITLE18=Worried man blues (1963)
TTITLE19=I wonder where you are tonight (1971)
TTITLE20=Noah's ark (1963)
TTITLE21=Sailor man (1961)
TTITLE22=What kind of bird is that (1963)
TTITLE23=Jeannie's last kiss (1964)
EXTD=
EXTT0=
EXTT1=
EXTT2=
EXTT3=
EXTT4=
EXTT5=
EXTT6=
EXTT7=
EXTT8=
EXTT9=
EXTT10=
EXTT11=
EXTT12=
EXTT13=
EXTT14=
EXTT15=
EXTT16=
EXTT17=
EXTT18=
EXTT19=
EXTT20=
EXTT21=
EXTT22=
EXTT23=
PLAYORDER=
